<?xml version="1.0" standalone="no"?>
<!DOCTYPE svg PUBLIC "-//W3C//DTD SVG 20010904//EN"
 "http://www.w3.org/TR/2001/REC-SVG-20010904/DTD/svg10.dtd">



<svg version="1.1" id="Layer_1" xmlns="http://www.w3.org/2000/svg" xmlns:xlink="http://www.w3.org/1999/xlink" x="0px" y="0px"
 width="628.000000pt" height="457.000000pt" viewBox="0 0 628.000000 457.000000"
 enable-background="new 0 0 800 800" xml:space="preserve">

<g transform="translate(0.000000,457.000000) scale(0.100000,-0.100000)" fill="#000000" stroke="none">



<path fill="#FFFFFF" stroke="#000000" stroke-width="2" stroke-miterlimit="10" d="M3878 4517 l-146 -40 -53 -121 c-29 -67 -76 -177 -105 -246 -49 -119
-53 -125 -83 -128 -26 -3 -33 1 -41 23 -6 14 -10 39 -10 55 0 20 -8 35 -28 49
-26 18 -32 19 -95 5 -72 -15 -135 -42 -157 -68 -8 -11 -11 -31 -7 -61 7 -48
-4 -86 -35 -121 -10 -12 -22 -38 -25 -59 -5 -34 -4 -38 11 -32 10 4 30 10 44
14 25 6 26 5 13 -11 -13 -15 -13 -19 0 -27 12 -8 11 -12 -5 -24 -10 -8 -24
-16 -30 -18 -6 -2 2 -15 18 -29 l29 -25 -26 -34 c-26 -35 -67 -162 -67 -211 0
-32 -3 -35 -60 -43 -25 -3 -87 -13 -137 -21 -92 -14 -93 -14 -141 10 -33 17
-53 35 -62 55 -10 24 -19 31 -41 31 -39 0 -79 20 -79 39 1 9 5 36 10 61 8 42
-1 67 -21 55 -3 -3 -14 4 -24 15 -17 19 -17 20 3 37 29 26 37 80 13 93 -28 15
-108 -13 -147 -51 -36 -35 -94 -51 -147 -40 -28 6 -34 14 -53 66 -14 38 -33
69 -54 86 -30 25 -32 31 -25 66 11 50 7 69 -17 107 l-21 32 -86 -2 c-77 -1
-94 -5 -156 -37 -65 -32 -75 -34 -140 -30 -38 3 -97 0 -130 -5 -39 -7 -64 -7
-72 0 -7 5 -20 7 -30 4 -10 -3 -31 3 -48 14 -16 11 -40 20 -52 20 -19 0 -23 6
-23 30 0 27 -2 30 -25 24 -30 -7 -55 10 -55 38 0 16 -4 18 -22 12 -13 -4 -56
-7 -97 -6 -94 2 -195 -25 -316 -85 l-89 -45 -103 12 c-82 9 -107 9 -118 0 -18
-15 -20 -47 -2 -53 6 -2 -5 -7 -25 -11 -23 -4 -38 -13 -38 -21 0 -18 -80 -21
-110 -5 -10 6 -21 6 -24 1 -3 -4 -30 -9 -60 -9 -48 0 -61 -5 -111 -42 -33 -24
-63 -56 -71 -75 -8 -21 -23 -35 -39 -39 -49 -12 -25 -46 34 -46 25 0 27 3 23
35 -4 33 -2 35 23 35 27 0 27 -1 12 -18 -10 -10 -17 -30 -17 -44 0 -14 -7 -31
-15 -38 -9 -7 -14 -19 -11 -27 3 -7 -1 -13 -9 -13 -8 0 -15 7 -15 15 0 22 -12
17 -38 -15 l-23 -29 42 -21 c38 -20 40 -23 25 -39 -9 -10 -15 -27 -13 -37 4
-29 25 -60 33 -51 4 4 2 13 -4 19 -9 9 -8 16 5 30 15 17 15 18 -1 18 -14 0
-14 3 -4 21 14 21 12 24 -39 55 -14 10 -16 14 -6 25 8 7 13 8 13 2 0 -5 12
-10 28 -9 20 1 27 6 27 22 0 11 5 27 11 35 6 8 10 23 8 33 -1 11 6 31 18 45
l20 26 -36 3 c-20 2 -36 7 -36 12 0 6 26 30 58 56 56 44 58 45 114 41 32 -3
58 -2 58 1 0 4 34 5 76 4 67 -3 76 -2 71 12 -4 11 -1 16 11 17 51 3 95 9 99
13 2 2 -12 9 -31 16 -39 12 -44 21 -23 39 10 8 40 7 113 -3 l99 -14 95 48
c133 66 195 83 318 84 74 1 102 -2 102 -11 0 -15 57 -46 70 -38 6 3 10 -5 10
-19 0 -16 6 -26 15 -26 8 0 16 1 18 2 1 2 19 -8 39 -20 21 -13 46 -22 55 -21
10 1 26 -1 35 -5 9 -4 51 -2 94 4 43 7 101 9 130 5 47 -6 59 -3 124 30 64 32
81 36 152 37 l79 1 21 -33 c19 -33 20 -68 3 -112 -4 -11 5 -26 29 -49 35 -31
35 -33 19 -52 -10 -11 -28 -23 -40 -28 -16 -6 -23 -17 -23 -34 0 -15 -14 -60
-32 -102 -27 -67 -30 -80 -20 -108 19 -49 15 -65 -13 -65 -14 0 -25 5 -25 10
0 6 -24 10 -52 11 -29 0 -62 4 -73 9 -14 5 -32 1 -59 -14 -28 -15 -40 -18 -43
-9 -4 10 -13 9 -40 -2 -19 -8 -62 -15 -94 -15 -38 0 -92 -11 -152 -30 -108
-34 -133 -37 -159 -13 -17 15 -22 15 -74 -1 -81 -25 -95 -27 -111 -11 -8 8
-21 15 -28 15 -18 0 -58 -57 -50 -70 3 -5 2 -10 -4 -10 -5 0 -27 -16 -48 -35
-20 -19 -39 -32 -41 -30 -7 6 40 89 61 105 25 21 14 44 -16 34 -12 -3 -29 -13
-38 -21 -15 -12 -22 -12 -54 1 -51 22 -62 20 -104 -14 -41 -31 -179 -75 -209
-66 -10 3 -26 20 -36 37 -20 33 -90 69 -134 69 -20 -1 -34 -11 -54 -40 -22
-32 -34 -40 -71 -45 -58 -9 -86 5 -80 40 4 20 1 25 -15 25 -12 0 -24 4 -27 10
-6 10 -33 9 -52 -3 -6 -4 -14 -3 -17 2 -3 5 8 14 26 20 42 15 31 22 -38 24
-41 1 -59 -2 -62 -12 -4 -11 5 -13 39 -9 l44 6 -47 -20 c-27 -11 -48 -24 -48
-28 0 -9 87 -6 96 3 11 11 52 8 59 -4 4 -6 12 -8 19 -6 7 3 11 -5 11 -22 0
-21 7 -28 34 -37 54 -17 108 1 140 47 17 25 34 38 49 39 36 0 102 -38 120 -70
9 -16 25 -33 36 -38 31 -13 178 31 224 68 l40 32 50 -18 c48 -17 52 -17 70 -1
29 26 50 22 25 -5 -28 -32 -83 -138 -83 -161 0 -37 -34 -115 -56 -128 -39 -25
-178 -194 -241 -295 -37 -59 -76 -108 -96 -122 l-34 -23 4 -147 c4 -158 -4
-198 -57 -272 -26 -37 -25 -41 9 -34 33 7 44 -6 56 -70 3 -22 17 -60 29 -85
13 -26 28 -68 35 -95 7 -27 20 -65 30 -85 9 -20 16 -52 15 -71 -3 -56 16 -110
42 -116 47 -12 75 -58 99 -159 18 -76 21 -104 13 -127 -12 -34 -3 -208 10
-217 95 -62 145 -128 156 -207 10 -73 45 -154 83 -195 18 -19 31 -38 27 -41
-3 -4 4 -28 15 -53 22 -50 29 -153 11 -171 -14 -14 -12 -67 6 -174 8 -52 15
-115 14 -139 -1 -58 17 -108 42 -122 51 -27 214 16 262 70 15 16 31 21 70 21
69 0 124 17 167 51 29 23 47 29 84 29 42 0 50 4 83 41 46 51 81 69 202 103 51
15 112 38 135 51 22 12 52 26 68 29 18 4 27 13 27 26 0 37 22 65 73 96 81 49
169 77 221 72 39 -5 48 -2 70 21 14 15 26 32 26 38 0 25 42 61 77 67 65 12 71
16 101 70 34 60 68 86 110 86 40 0 48 14 55 89 6 73 40 121 80 114 16 -3 27 4
41 27 10 18 47 65 81 104 35 40 71 90 80 112 16 39 16 39 -12 63 -15 13 -41
49 -58 79 -27 50 -35 57 -83 73 -145 49 -198 106 -187 201 4 29 13 70 21 91
33 88 13 83 -95 -22 -43 -42 -111 -107 -150 -145 l-73 -68 -84 7 c-65 5 -88 3
-104 -8 -23 -16 -59 -12 -75 7 -5 7 -18 15 -28 19 -16 6 -17 9 -1 44 9 21 21
60 26 88 5 27 14 57 18 66 7 12 2 23 -15 39 -14 13 -27 22 -29 19 -35 -41 -76
-117 -76 -142 0 -38 -10 -30 -17 14 -3 19 -11 46 -19 60 -12 25 -12 28 11 43
14 9 25 21 25 27 0 8 -4 8 -14 0 -11 -9 -15 -5 -19 19 -4 16 -4 36 -1 44 3 8
-9 25 -30 41 -26 20 -36 35 -36 55 0 15 -9 35 -21 46 -28 25 -38 52 -50 143
-6 42 -16 79 -22 83 -7 4 2 14 21 25 26 14 31 23 27 41 -5 21 -3 23 16 17 17
-6 28 0 51 25 15 18 28 37 28 41 0 5 5 9 10 9 6 0 10 -6 10 -14 0 -7 9 -25 21
-40 16 -21 24 -24 39 -16 28 15 40 12 40 -8 0 -10 7 -27 15 -38 8 -10 15 -30
15 -43 0 -14 8 -34 18 -45 11 -12 24 -52 31 -91 l12 -71 52 -19 c40 -16 55
-28 66 -52 10 -22 25 -36 47 -43 18 -6 36 -20 39 -30 4 -13 20 -20 53 -25 95
-13 126 -10 182 17 144 70 168 62 190 -63 l15 -83 75 -11 c41 -6 81 -14 89
-19 12 -8 49 -13 161 -20 25 -2 58 -8 73 -15 16 -6 41 -11 57 -11 16 0 32 -5
35 -10 4 -7 13 -7 26 0 10 6 58 15 106 20 49 6 105 13 126 16 26 4 45 1 63
-11 20 -13 28 -14 39 -5 8 7 34 13 57 15 24 2 64 6 90 10 39 5 50 3 67 -14 12
-12 21 -31 21 -44 0 -14 9 -26 22 -32 17 -7 26 -24 34 -60 7 -37 16 -53 35
-62 32 -17 54 -16 69 2 7 8 26 15 42 15 21 0 31 6 35 20 4 16 14 20 49 20 23
0 54 -4 67 -9 18 -7 32 -5 54 9 27 16 32 16 45 4 12 -12 20 -13 39 -4 29 13
36 68 13 111 -8 15 -14 41 -14 58 0 23 -5 30 -22 33 -24 3 -27 23 -17 87 3 21
-1 26 -28 34 -53 16 -44 47 31 125 l64 66 19 -22 c17 -22 19 -22 55 -8 21 9
48 16 61 16 18 0 36 15 67 55 23 30 57 64 76 76 19 11 52 47 75 79 22 32 54
64 70 70 15 7 31 20 34 29 9 29 104 121 125 121 22 0 27 16 8 23 -10 3 -10 7
0 19 7 9 10 22 6 31 -10 26 13 54 50 61 19 4 39 13 46 21 18 22 3 55 -26 55
-19 0 -24 5 -24 25 0 18 -5 25 -20 25 -11 0 -20 6 -20 14 0 7 -7 19 -16 27
-14 11 -13 14 6 29 19 14 21 20 11 39 -10 17 -9 22 4 27 17 7 21 34 4 34 -6 0
-9 6 -6 14 3 7 0 19 -6 25 -9 10 -5 18 16 37 34 29 38 29 113 4 40 -14 69 -18
89 -13 16 4 36 6 43 4 8 -1 20 3 28 10 7 6 25 8 39 5 19 -5 28 -1 41 19 9 14
36 37 60 51 24 14 44 29 44 33 0 4 -25 15 -55 25 -34 10 -55 23 -55 32 0 10
-7 13 -24 8 -31 -7 -38 5 -26 47 11 38 -11 85 -36 75 -8 -3 -14 1 -14 8 0 9
-16 17 -40 21 -40 7 -47 25 -10 25 24 0 39 53 37 130 l-2 55 -45 0 c-39 0 -45
3 -48 23 -2 13 12 56 31 96 32 68 37 73 83 90 27 10 58 27 70 37 24 23 72 25
80 4 4 -10 18 -13 51 -10 48 4 86 24 102 54 8 14 33 23 98 35 64 12 94 23 113
40 14 14 68 41 120 61 105 40 115 47 123 76 4 16 -2 24 -31 36 -20 8 -44 23
-52 33 -24 29 -197 51 -347 43 -111 -5 -124 -4 -166 16 -43 21 -46 21 -86 5
-34 -13 -55 -34 -86 -82 -1 -1 -23 7 -49 19 -29 12 -71 21 -111 22 l-65 2 -42
-48 c-24 -27 -51 -49 -60 -51 -9 -1 -25 -10 -35 -19 -10 -9 -37 -24 -58 -33
-22 -9 -66 -32 -98 -51 -58 -35 -58 -35 -98 -19 -28 12 -55 14 -94 10 l-54 -7
2 44 c2 41 0 44 -25 47 -34 4 -34 7 -4 51 33 49 44 91 22 91 -9 0 -16 8 -16
20 0 11 -15 37 -34 57 l-33 37 -129 -13 c-71 -7 -146 -14 -166 -17 l-37 -5
-69 103 c-79 117 -147 179 -196 177 -17 -1 -97 -19 -178 -42z m255 -9 c21 -17
70 -77 108 -134 77 -116 65 -110 194 -95 212 25 209 25 244 -14 17 -20 31 -45
31 -55 0 -11 5 -20 11 -20 16 0 2 -48 -22 -78 -28 -36 -25 -60 9 -64 26 -3 27
-5 24 -48 l-3 -46 61 6 c48 5 71 2 102 -12 l40 -18 44 30 c24 17 72 44 108 59
35 16 67 34 70 40 4 6 15 11 25 11 10 0 26 9 36 20 19 21 35 26 35 10 0 -5
-29 -25 -65 -45 -68 -38 -79 -53 -45 -62 11 -3 20 -10 20 -15 0 -5 15 -15 33
-23 30 -13 34 -12 60 13 15 14 28 23 28 19 1 -4 2 -12 3 -18 1 -12 37 -34 80
-49 l30 -11 -30 -19 c-16 -11 -38 -20 -49 -20 -11 0 -31 -7 -43 -16 -27 -18
-164 -23 -170 -6 -2 6 8 18 22 28 26 17 35 57 16 69 -6 4 -30 -5 -54 -18 -24
-13 -60 -27 -81 -31 -29 -6 -39 -14 -50 -40 -10 -23 -23 -36 -42 -41 -15 -3
-39 -19 -53 -35 -20 -22 -36 -30 -77 -33 -62 -6 -94 -32 -80 -65 5 -11 16 -22
25 -24 11 -2 16 -19 17 -61 3 -56 2 -59 -35 -88 -21 -17 -44 -45 -51 -61 -11
-27 -15 -30 -48 -24 -20 3 -46 6 -58 6 -27 0 -31 26 -8 56 8 10 14 24 15 29 0
18 -71 57 -96 52 -19 -3 -32 5 -59 39 -19 23 -45 46 -58 50 -12 4 -40 26 -62
49 -22 23 -51 49 -65 59 -20 13 -25 26 -27 64 -7 131 -23 164 -70 143 -20 -9
-36 -9 -79 4 -59 17 -64 25 -34 55 11 11 15 22 10 25 -6 4 -7 17 -4 29 5 21 1
24 -30 30 -22 4 -44 18 -59 38 -24 30 -26 30 -56 17 -17 -8 -31 -17 -31 -21 0
-5 -8 -8 -18 -8 -10 0 -25 -9 -35 -20 -9 -11 -29 -20 -43 -20 -40 0 -94 -45
-94 -78 0 -43 -10 -51 -63 -45 -26 3 -47 9 -47 13 0 7 101 246 182 430 l20 45
152 42 c83 23 162 40 175 37 14 -3 42 -19 64 -36z m1659 -319 c51 1 104 3 118
6 14 3 77 -2 140 -11 88 -12 119 -21 132 -35 9 -11 30 -24 47 -30 58 -20 31
-49 -89 -94 -52 -20 -106 -47 -120 -60 -18 -16 -49 -28 -106 -38 -69 -13 -85
-20 -116 -51 -30 -30 -43 -36 -77 -36 -23 0 -41 5 -41 10 0 16 -88 12 -97 -4
-4 -8 -32 -24 -62 -36 -30 -11 -62 -32 -73 -45 -11 -14 -28 -25 -38 -25 -10 0
-21 -4 -24 -9 -3 -4 -27 -11 -53 -14 -27 -3 -67 -9 -90 -13 -40 -6 -43 -5 -43
15 0 24 16 22 -192 20 -73 0 -76 1 -71 21 10 37 72 56 121 38 25 -10 34 -8 61
11 26 19 40 22 77 17 34 -4 55 0 82 14 20 11 43 20 50 20 15 0 92 42 92 51 0
3 -25 13 -56 23 -39 12 -58 24 -64 41 -13 35 -25 37 -50 10 -25 -27 -57 -26
-73 1 -4 8 -15 14 -22 14 -29 0 -14 16 45 48 67 37 76 47 61 66 -9 10 -7 19 7
36 15 19 27 23 74 21 31 0 77 -10 103 -21 61 -26 67 -26 89 11 10 17 36 39 58
49 39 17 41 17 74 -2 27 -16 51 -19 126 -19z m-1812 -89 c21 0 22 -3 16 -42
-14 -84 -16 -80 44 -96 40 -10 63 -11 82 -4 19 7 30 7 36 -2 12 -14 22 -78 22
-132 -1 -44 11 -61 59 -90 16 -9 36 -30 45 -45 10 -16 32 -35 50 -43 18 -8 48
-33 67 -56 27 -33 38 -41 58 -37 16 3 37 -3 58 -18 29 -19 31 -24 18 -35 -8
-7 -15 -20 -15 -29 0 -36 -14 -43 -60 -30 -37 11 -43 11 -52 -4 -5 -11 -21
-17 -43 -17 -37 0 -64 -26 -100 -94 -15 -28 -35 -46 -77 -67 -32 -16 -66 -29
-77 -29 -30 0 -50 -10 -45 -24 7 -18 -39 -57 -80 -66 -28 -6 -38 -4 -52 11 -9
11 -30 19 -45 19 -35 0 -41 10 -30 46 5 16 12 48 15 72 6 41 6 42 -23 42 -36
0 -125 69 -139 109 -9 24 -17 30 -56 35 -66 10 -135 43 -148 71 -9 19 -18 24
-47 23 -20 0 -46 -7 -58 -14 -12 -8 -42 -14 -67 -14 -35 0 -59 -9 -117 -45
-77 -48 -124 -59 -115 -27 3 9 10 37 16 62 7 25 25 63 41 85 l30 40 -26 22
-25 22 32 17 c29 15 30 18 15 29 -23 17 -21 28 3 20 14 -5 20 -2 20 10 0 21
-39 35 -68 24 -32 -12 -32 -12 -32 14 0 12 12 34 25 50 l24 27 73 -11 c63 -10
73 -9 83 5 7 9 17 16 22 16 5 0 18 9 28 20 17 19 17 21 -7 52 -14 18 -28 47
-32 65 -9 40 -27 46 -79 26 -51 -20 -67 -31 -78 -58 -8 -18 -9 -18 -6 5 4 42
74 79 182 95 55 9 76 -9 82 -68 3 -26 11 -51 17 -56 7 -6 55 -13 108 -15 104
-6 108 -4 108 49 0 31 57 75 97 75 20 0 36 7 46 23 12 18 18 20 28 10 19 -18
31 -16 25 5 -4 12 1 21 17 28 19 8 27 5 53 -23 18 -18 42 -33 54 -33z m-665
-72 c4 -18 17 -45 28 -60 17 -22 18 -30 7 -43 -7 -8 -21 -15 -31 -15 -11 0
-19 -7 -19 -16 0 -12 -7 -14 -27 -10 -16 3 -45 8 -67 12 l-38 7 6 45 c8 59 26
86 68 99 56 18 66 16 73 -19z m1821 -109 c3 -6 -6 -21 -21 -33 -21 -17 -26
-29 -23 -51 3 -32 4 -32 -65 -18 -51 10 -107 -30 -107 -77 0 -5 37 -11 83 -14
45 -3 89 -6 97 -7 8 -1 32 1 53 6 34 7 37 5 37 -15 0 -22 2 -23 58 -16 31 4
77 9 102 12 25 3 47 9 48 14 2 6 10 10 17 10 11 0 8 -13 -10 -52 -14 -29 -25
-60 -25 -69 0 -26 25 -40 67 -37 l38 3 -2 -55 c0 -30 -1 -63 -2 -72 -1 -14
-10 -18 -40 -18 -22 0 -51 -4 -65 -10 -21 -7 -26 -6 -26 5 0 24 -46 18 -91
-11 -33 -21 -158 -74 -173 -74 -2 0 -7 11 -10 25 -4 15 3 44 19 80 20 46 22
57 10 61 -11 4 -12 11 -5 24 11 21 -15 50 -46 50 -21 0 -97 -73 -108 -103 -4
-14 -14 -18 -39 -16 -39 4 -55 -5 -67 -37 -8 -21 -13 -22 -33 -13 -18 8 -35 6
-77 -11 -42 -17 -55 -18 -61 -8 -5 7 -9 17 -9 21 0 20 32 64 65 90 33 26 35
32 33 75 -1 26 2 55 6 64 6 13 2 19 -17 23 -62 16 -32 62 44 70 44 4 59 10 79
34 14 17 38 33 53 37 19 4 32 17 42 40 10 26 20 34 38 34 14 0 45 11 68 25 50
28 55 29 65 14z m-2942 -240 c12 -32 19 -37 57 -42 72 -9 97 -3 144 37 44 36
89 56 127 56 39 0 11 -77 -33 -92 -16 -5 37 -57 59 -58 14 0 15 -29 3 -83 -9
-36 -7 -38 22 -54 18 -9 44 -16 58 -15 21 0 30 -6 40 -29 8 -20 29 -39 63 -56
l51 -26 110 17 c60 9 124 16 141 16 37 0 51 14 56 55 3 25 8 31 38 35 20 4 64
24 99 45 49 30 74 39 113 41 27 0 54 6 61 13 20 20 84 13 101 -11 19 -27 110
-67 154 -68 28 0 35 -5 43 -30 14 -38 103 -110 137 -110 24 0 24 -1 18 -52
-12 -86 -97 -245 -144 -267 -30 -14 -47 -59 -32 -87 10 -17 8 -27 -9 -55 -12
-19 -21 -50 -21 -69 0 -19 -6 -58 -14 -86 -15 -59 -7 -84 28 -84 31 0 49 -40
35 -77 -5 -15 -32 -50 -58 -78 -69 -72 -77 -90 -55 -123 9 -14 22 -46 29 -72
9 -39 19 -50 68 -83 l56 -38 -6 -63 c-5 -59 -4 -64 16 -71 46 -14 15 -53 -65
-79 -63 -20 -104 -63 -134 -139 l-23 -58 -41 6 c-23 4 -46 11 -52 16 -7 6 -45
11 -85 14 -79 4 -109 8 -179 24 -25 5 -61 12 -81 16 l-37 5 -12 81 c-10 65
-17 83 -36 96 -29 19 -87 10 -147 -21 -76 -41 -114 -50 -149 -35 -18 7 -44 12
-60 11 -20 -2 -28 2 -28 14 0 9 -16 22 -39 31 -26 10 -43 25 -52 46 -11 25
-26 36 -65 50 l-51 19 -13 73 c-8 47 -20 81 -31 91 -11 10 -19 28 -19 41 0 13
-4 31 -10 41 -5 9 -15 30 -20 46 -8 21 -14 26 -28 21 -29 -12 -44 -11 -52 5
-22 47 -28 55 -40 55 -7 0 -18 -9 -24 -20 -18 -33 -29 -35 -53 -13 -15 14 -23
33 -23 53 0 17 -5 36 -11 42 -7 7 -6 21 5 48 34 81 18 136 -57 197 -45 36 -55
50 -60 83 -3 21 -13 45 -22 51 -15 11 -15 15 0 43 9 18 45 62 80 99 36 37 65
73 65 81 0 8 10 25 22 38 25 27 21 33 -24 42 -25 5 -34 12 -36 31 -1 14 -7 42
-14 62 -8 27 -8 48 1 82 10 39 9 50 -5 71 -15 23 -14 28 15 99 17 41 31 86 31
101 0 17 7 28 23 34 13 5 29 17 37 26 16 19 11 25 44 -56z m-2118 -16 c-3 -3
-12 2 -21 10 -13 14 -13 16 3 19 16 3 30 -18 18 -29z m5002 -106 c6 -7 9 -22
6 -34 -3 -11 -1 -24 4 -27 7 -4 3 -23 -9 -52 -24 -52 -19 -130 7 -120 42 17
48 17 24 -3 -14 -11 -31 -21 -38 -21 -43 0 -91 -67 -62 -85 6 -3 10 -22 10
-41 0 -28 -10 -45 -49 -87 -26 -29 -51 -64 -55 -79 -8 -36 -39 -51 -93 -45
-47 5 -68 -12 -44 -36 30 -30 -8 -87 -58 -87 -12 0 -28 -12 -37 -27 -9 -16
-25 -39 -34 -53 -10 -14 -21 -40 -24 -57 -10 -42 -42 -71 -64 -57 -36 22 -142
-9 -142 -41 0 -11 -13 -15 -53 -15 -47 0 -57 -4 -85 -33 -28 -29 -57 -88 -67
-141 -3 -10 -6 -21 -9 -23 -12 -12 -157 -42 -187 -38 -20 2 -43 -2 -57 -11
-17 -11 -31 -12 -55 -6 -20 6 -57 5 -94 -1 -56 -9 -68 -7 -137 18 -42 15 -76
32 -76 36 0 5 24 36 54 68 30 32 57 72 60 88 10 45 -7 79 -45 87 -30 6 -31 7
-25 44 4 20 11 62 15 92 4 30 18 75 30 99 16 31 20 46 12 54 -19 19 -12 47 17
64 32 19 62 59 98 130 23 47 28 52 45 42 12 -6 27 -8 34 -5 7 2 21 -4 31 -15
32 -36 124 -5 149 50 6 12 21 24 35 27 14 3 51 17 83 32 49 22 63 35 88 79 34
58 67 87 92 78 8 -4 23 3 35 15 15 16 24 19 43 12 13 -5 60 -13 104 -17 60 -5
85 -12 102 -27 l22 -21 55 20 c37 14 59 17 71 11 23 -13 45 -3 45 21 0 23 30
35 61 26 22 -7 59 18 59 40 0 14 75 85 89 85 5 0 13 -6 19 -13z m-3096 -151
c4 -6 12 -12 18 -12 5 -1 15 -2 21 -3 7 0 9 -10 6 -23 -3 -12 -1 -31 5 -42 7
-12 14 -39 17 -60 5 -35 10 -41 40 -48 31 -9 32 -10 17 -27 -9 -10 -16 -25
-16 -33 0 -9 -26 -42 -58 -74 -89 -91 -122 -154 -87 -168 8 -3 18 -24 21 -46
6 -34 16 -48 64 -88 51 -42 58 -52 64 -93 5 -35 1 -58 -14 -95 -19 -42 -19
-49 -5 -56 9 -5 15 -23 15 -42 0 -20 8 -40 20 -51 21 -19 27 -45 11 -45 -6 0
-12 4 -15 8 -3 5 -28 10 -55 11 -38 1 -55 -3 -68 -17 -10 -11 -37 -40 -61 -65
l-43 -46 -92 6 c-74 4 -106 11 -160 36 -67 30 -67 30 -61 63 12 64 11 69 -19
72 -19 2 -31 11 -37 28 -7 16 -28 33 -62 49 -29 13 -75 46 -102 73 -42 43 -59
53 -127 72 l-79 23 0 74 0 74 164 78 c185 89 188 91 255 241 52 113 54 117 90
125 15 3 43 21 61 40 19 19 38 35 42 35 5 0 25 11 45 24 32 22 43 24 107 19
39 -3 74 -11 78 -17z m3353 7 c10 -13 17 -14 45 -5 18 7 40 12 49 12 14 -1 14
-2 -1 -11 -10 -5 -18 -16 -18 -24 0 -18 -21 -23 -144 -29 l-99 -5 59 30 c32
17 63 34 69 40 13 13 26 11 40 -8z m-3587 -11 c-8 -20 -86 -81 -111 -88 -34
-8 -43 -21 -97 -144 -23 -52 -50 -105 -60 -118 -18 -21 -175 -101 -503 -253
-82 -38 -150 -69 -152 -69 -3 0 -20 16 -39 35 -31 31 -34 38 -25 59 6 13 29
33 51 46 21 12 37 25 34 28 -9 8 14 32 31 32 8 0 30 15 49 34 28 27 33 39 30
67 -2 24 -8 33 -19 31 -21 -4 -30 14 -18 35 5 10 11 32 14 50 6 39 14 53 31
53 7 0 25 13 42 28 16 16 37 31 47 35 9 3 17 15 17 25 0 10 6 27 14 38 13 16
18 17 35 7 28 -18 48 -16 116 7 52 18 60 18 75 5 25 -22 74 -18 180 15 65 21
113 30 151 29 30 -1 64 3 75 9 23 14 37 15 32 4z m3735 -42 c10 0 17 -8 17
-18 0 -13 7 -18 23 -18 17 1 23 -5 25 -28 2 -16 -1 -33 -7 -39 -16 -16 6 -47
34 -47 14 0 25 -4 25 -9 0 -5 17 -15 38 -21 55 -18 57 -25 18 -50 -20 -12 -41
-30 -46 -41 -7 -12 -21 -19 -38 -19 -15 0 -52 -6 -81 -14 -49 -13 -59 -12
-109 5 -30 10 -66 19 -80 19 -31 0 -87 -57 -72 -75 5 -6 7 -15 3 -18 -3 -4 0
-13 6 -21 9 -10 9 -16 1 -21 -7 -4 -9 -19 -5 -35 5 -21 2 -31 -12 -39 -15 -8
-16 -13 -5 -28 7 -10 15 -26 18 -35 4 -10 12 -18 19 -18 8 0 15 -10 17 -22 2
-13 11 -24 23 -26 56 -11 49 -46 -11 -58 -37 -7 -54 -28 -54 -68 0 -14 -5 -28
-11 -31 -5 -4 -8 -12 -6 -18 2 -7 -6 -19 -18 -27 -27 -18 -105 -108 -105 -120
0 -5 -11 -12 -24 -16 -13 -3 -43 -32 -69 -68 -25 -35 -63 -75 -84 -89 -21 -15
-56 -49 -77 -77 -30 -39 -44 -50 -67 -50 -15 0 -40 -5 -55 -12 -23 -11 -28
-10 -46 12 l-19 23 -65 -64 c-40 -39 -68 -77 -74 -98 -11 -42 -8 -48 30 -56
32 -7 35 -14 21 -61 -11 -37 2 -64 31 -64 16 0 19 -5 15 -21 -3 -12 3 -39 13
-59 16 -32 17 -42 7 -69 -12 -33 -25 -39 -45 -19 -9 9 -19 7 -45 -7 -24 -13
-43 -16 -63 -10 -16 4 -48 8 -71 9 -36 1 -43 -1 -45 -19 -2 -14 -12 -21 -35
-23 -17 -2 -36 -9 -42 -16 -14 -17 -59 -9 -70 13 -5 9 -12 33 -16 54 -5 24
-16 44 -31 54 -14 9 -24 25 -24 39 0 43 -36 56 -141 48 -52 -4 -100 -11 -107
-17 -9 -7 -20 -6 -36 3 -16 8 -39 10 -67 5 -24 -3 -69 -8 -99 -10 -75 -6 -112
-11 -132 -20 -23 -9 -23 -10 7 64 30 72 61 104 125 126 25 8 56 22 68 31 28
20 29 60 1 69 -19 6 -20 12 -14 70 l7 63 -60 40 c-50 35 -61 47 -67 79 -3 21
-13 49 -22 61 -8 13 -13 26 -10 28 2 3 34 -6 70 -20 60 -22 77 -24 179 -20
141 5 248 18 315 37 64 18 73 24 73 46 0 39 33 110 66 142 19 19 37 33 40 32
2 -2 24 -3 49 -3 34 0 47 4 52 18 4 9 14 23 22 30 18 13 79 13 98 -1 14 -10
59 17 73 44 6 10 10 29 10 43 0 14 5 28 10 31 6 4 22 24 36 46 13 21 31 39 40
39 8 0 28 7 44 15 24 12 30 22 30 48 0 18 -5 38 -12 45 -9 9 1 12 45 12 50 0
61 4 83 27 13 14 23 31 21 37 -2 6 18 34 44 63 27 28 49 60 50 70 2 36 -3 68
-14 82 -9 10 -5 19 18 37 17 13 36 24 43 24 8 0 27 9 43 20 34 25 120 41 205
39 33 -1 69 3 80 10 10 6 28 9 39 6 11 -3 28 -5 38 -5z m-4545 -331 c12 -19
10 -24 -23 -54 -20 -19 -44 -35 -53 -37 -9 -2 -21 -13 -27 -25 -5 -12 -26 -30
-47 -40 -21 -10 -38 -21 -38 -25 0 -5 -9 -8 -21 -8 -16 0 -6 16 51 83 39 45
82 89 96 97 13 8 24 18 24 22 0 16 26 7 38 -13z m192 -248 c0 -65 -2 -71 -27
-89 -16 -11 -79 -29 -145 -42 -65 -12 -118 -27 -118 -32 0 -5 18 -36 40 -68
l40 -59 -22 -12 c-13 -6 -34 -24 -48 -41 -18 -21 -38 -31 -68 -35 -33 -4 -49
-13 -68 -39 -42 -55 -69 -67 -130 -59 -35 4 -54 11 -54 20 0 23 63 149 95 190
45 57 79 135 59 135 -3 0 -20 -11 -36 -25 -17 -14 -33 -23 -37 -20 -3 4 7 17
22 29 23 19 26 24 13 29 -19 7 -12 32 17 65 23 24 43 29 49 10 3 -8 9 -4 17
10 15 27 37 28 51 2 21 -39 50 -34 195 34 77 36 143 65 148 65 4 1 7 -30 7
-68z m-401 40 c22 -14 -2 -61 -30 -61 -13 0 -31 -8 -42 -17 -22 -20 -21 -16
20 50 25 39 30 42 52 28z m-105 -138 c-3 -16 -13 -42 -22 -60 -19 -37 -13 -49
17 -33 20 10 21 9 15 -17 -4 -15 -16 -41 -28 -58 -12 -16 -37 -63 -58 -105
l-36 -75 -1 115 c-1 112 0 116 24 134 14 10 25 25 25 32 0 8 4 14 8 14 5 0 18
18 31 40 26 47 34 51 25 13z m589 -4 c58 -17 82 -31 123 -71 28 -27 74 -60
103 -73 32 -15 55 -33 61 -49 5 -14 18 -26 32 -28 21 -3 23 -8 21 -53 l-3 -50
63 -32 c53 -27 76 -33 162 -38 122 -7 188 -26 203 -60 9 -20 19 -25 46 -25 32
0 34 -2 45 -47 7 -27 24 -60 38 -75 17 -18 24 -34 20 -48 -4 -15 3 -27 28 -45
37 -29 52 -89 33 -131 -9 -19 -8 -31 5 -56 9 -18 19 -49 22 -69 3 -21 14 -48
25 -62 11 -14 20 -32 20 -41 0 -8 14 -31 30 -50 23 -25 32 -48 37 -86 3 -29
12 -54 18 -56 43 -17 342 -70 350 -63 15 15 21 11 40 -31 l18 -40 -57 -127
c-32 -71 -63 -133 -69 -139 -25 -24 -372 -140 -567 -189 l-206 -52 -99 -104
c-55 -57 -130 -135 -168 -174 l-67 -70 2 64 3 64 -103 43 -104 44 -64 -16
c-66 -17 -129 -56 -139 -86 -9 -25 -25 -22 -25 5 -1 12 -7 33 -15 47 -8 14
-14 36 -15 50 0 13 -15 40 -33 60 -38 39 -72 121 -82 193 -9 66 -46 124 -111
172 -39 29 -54 47 -54 65 0 14 -3 49 -6 79 -4 32 -2 68 6 91 11 33 9 50 -11
136 -25 105 -58 158 -104 170 -27 7 -35 29 -35 97 0 26 -8 64 -19 85 -10 20
-24 60 -30 87 -7 28 -20 64 -30 80 -10 17 -21 44 -25 60 -23 94 -28 106 -50
115 l-23 8 28 59 c16 32 29 64 29 72 0 13 48 11 116 -6 16 -3 35 9 75 50 42
42 63 56 94 60 27 4 48 16 65 36 14 16 35 34 48 40 12 7 22 16 22 22 0 6 -18
36 -39 68 l-39 58 116 23 c66 13 127 31 141 42 29 22 19 22 104 -3z m859 -291
l21 -21 -41 -25 c-40 -23 -47 -42 -16 -42 10 0 14 -12 14 -45 0 -41 -2 -45
-25 -45 -17 0 -29 8 -37 25 -7 16 -25 29 -50 37 -21 6 -38 14 -38 17 0 3 25
32 54 64 59 62 83 70 118 35z m845 -540 c-8 -24 -12 -28 -15 -15 -5 23 4 47
17 47 6 0 5 -13 -2 -32z m-575 -19 c-10 -99 -16 -121 -38 -145 -64 -68 -75 50
-13 135 32 45 56 49 51 10z m552 -77 c-6 -30 -14 -47 -24 -48 -55 -4 -53 0
-46 -58 l7 -54 -35 -12 c-34 -11 -37 -16 -61 -95 -14 -46 -32 -88 -40 -95 -21
-18 -342 45 -349 69 -2 9 -7 35 -11 57 -4 27 -17 51 -36 70 -31 30 -38 59 -16
67 10 4 13 -2 9 -19 -3 -19 0 -24 17 -24 12 0 21 -6 21 -15 0 -8 6 -15 13 -16
6 0 22 -2 35 -5 12 -2 33 3 45 11 18 11 38 13 97 6 66 -7 79 -6 111 12 21 11
43 31 50 44 7 14 40 46 74 73 33 26 73 62 89 78 26 28 30 29 44 16 12 -13 13
-25 6 -62z m11 -98 c27 -51 63 -78 156 -116 76 -31 83 -36 106 -82 13 -26 36
-58 50 -70 24 -21 25 -26 15 -55 -7 -18 -38 -63 -70 -99 -32 -37 -69 -84 -81
-104 -24 -40 -36 -47 -44 -25 -3 8 -18 -1 -42 -24 -33 -33 -38 -44 -44 -104
-7 -69 -18 -85 -59 -85 -36 0 -69 -28 -102 -86 -31 -53 -36 -57 -100 -69 -40
-8 -80 -41 -80 -65 0 -9 -11 -26 -23 -38 -19 -18 -35 -22 -73 -21 -30 1 -72
-7 -107 -21 -33 -12 -63 -18 -67 -14 -8 9 -70 270 -70 295 0 9 66 38 178 78
97 35 182 69 189 75 6 6 39 71 72 145 l60 133 -24 48 -24 47 25 81 c24 79 26
82 65 93 28 9 38 17 35 28 -2 9 -7 33 -11 54 -6 35 -5 37 22 37 22 0 33 -8 48
-36z m-615 -939 l37 -155 -48 -35 c-33 -23 -51 -45 -57 -66 -4 -18 -14 -35
-22 -39 -8 -3 -37 -18 -65 -32 -27 -14 -93 -38 -145 -53 -121 -35 -156 -53
-202 -104 -33 -37 -41 -41 -83 -41 -37 0 -55 -6 -85 -30 -41 -32 -111 -51
-166 -44 -26 3 -41 -2 -66 -25 -30 -26 -118 -77 -118 -68 0 2 -21 0 -47 -4
-27 -4 -60 -5 -75 -2 -30 6 -40 32 -44 118 -2 28 -8 88 -14 135 -17 130 -19
160 -9 166 5 3 9 25 9 50 0 31 4 44 14 44 8 0 17 8 21 18 11 30 62 62 128 81
l63 17 100 -41 c63 -26 99 -46 98 -55 0 -8 -4 -44 -7 -80 l-7 -65 78 80 c42
44 124 129 181 189 l103 109 191 48 c106 25 194 45 196 43 2 -2 20 -73 41
-159z"/>
<path d="M68 3279 c-36 -19 -69 -59 -49 -59 26 0 61 22 81 49 25 36 19 38 -32
10z m2 -23 c0 -2 -7 -7 -16 -10 -8 -3 -12 -2 -9 4 6 10 25 14 25 6z"/>
<path d="M1006 565 c4 -8 8 -15 10 -15 2 0 4 7 4 15 0 8 -4 15 -10 15 -5 0 -7
-7 -4 -15z"/>
<path d="M1035 190 c-3 -5 1 -10 10 -10 9 0 13 5 10 10 -3 6 -8 10 -10 10 -2
0 -7 -4 -10 -10z"/>
</g>
</svg>
